<svg width="262" height="241" viewBox="0 0 262 241" fill="none" xmlns="http://www.w3.org/2000/svg">
<g opacity="0.1">
<path d="M92.5252 300.322C105.986 300.322 117.806 293.165 124.537 282.379C129.286 274.767 136.885 270.514 145.726 270.514H148.524C157.366 270.514 164.964 274.77 169.714 282.379C176.444 293.165 188.264 300.322 201.725 300.322C222.673 300.322 239.651 282.991 239.651 261.615C239.651 240.236 222.669 222.908 201.725 222.908C188.268 222.908 176.444 230.066 169.714 240.851C164.964 248.464 157.366 252.717 148.524 252.717H145.726C136.885 252.717 129.286 248.46 124.537 240.847C118.463 231.111 108.243 224.336 96.4131 223.106C87.6025 222.189 80.4498 217.15 76.487 209.065L69.4944 194.788C65.5316 186.699 65.872 177.842 70.4408 170.097C73.8758 164.273 75.8504 157.453 75.8504 150.159C75.8504 128.78 58.8692 111.452 37.9252 111.452C16.9778 111.452 0 128.784 0 150.159C0 170.198 14.9182 186.681 34.0408 188.669C42.8548 189.586 50.0041 194.624 53.9668 202.71L60.9595 216.987C64.9222 225.072 64.5818 233.933 60.0131 241.678C56.578 247.501 54.6 254.322 54.6 261.612C54.6 282.994 71.5813 300.322 92.5252 300.322ZM149.934 111.556C162.598 112.501 173.537 119.798 179.706 130.333C183.787 137.303 190.62 141.261 198.576 141.261H204.878C212.834 141.261 219.667 137.303 223.748 130.333C230.367 119.027 242.48 111.452 256.325 111.452C277.273 111.452 294.251 128.784 294.251 150.159C294.251 171.539 277.269 188.867 256.325 188.867C242.48 188.867 230.367 181.292 223.748 169.986C219.667 163.016 212.834 159.058 204.878 159.058H198.576C190.62 159.058 183.787 163.016 179.706 169.986C173.084 181.292 160.974 188.867 147.125 188.867C126.178 188.867 109.2 171.535 109.2 150.159C109.2 142.474 111.396 135.309 115.182 129.284C119.488 122.435 119.907 114.409 116.343 107.133L107.777 89.6523C104.213 82.3765 97.6693 77.9046 89.7166 77.3105C70.0799 75.8442 54.5966 59.1208 54.5966 38.7073C54.5966 17.328 71.5779 0 92.5218 0C106.368 0 118.481 7.57469 125.099 18.8811C129.181 25.8512 136.013 29.8088 143.969 29.8088H150.271C158.227 29.8088 165.06 25.8512 169.142 18.8811C175.76 7.57469 187.873 0 201.722 0C222.669 0 239.647 17.3314 239.647 38.7073C239.647 60.0867 222.666 77.4147 201.722 77.4147C187.876 77.4147 175.763 69.84 169.142 58.5336C165.06 51.5635 158.227 47.6059 150.271 47.6059H143.976C136.02 47.6059 129.187 51.5635 125.106 58.5336C124.898 58.8845 124.687 59.2355 124.469 59.5794C120.162 66.4279 119.744 74.4543 123.308 81.7302L131.873 99.2145C135.438 106.494 141.981 110.962 149.934 111.556Z" fill="url(#paint0_linear_548_49451)"/>
</g>
<defs>
<linearGradient id="paint0_linear_548_49451" x1="0" y1="150.161" x2="294.251" y2="150.161" gradientUnits="userSpaceOnUse">
<stop stop-color="#A53E1B"/>
<stop offset="1" stop-color="#173998"/>
</linearGradient>
</defs>
</svg>
