<svg width="114" height="19" viewBox="0 0 114 19" fill="none" xmlns="http://www.w3.org/2000/svg">
<g clip-path="url(#clip0_1075_44283)">
<path d="M9.43449 1.17963L6.75155 6.61627L0.75473 7.48307L5.09461 11.7168L4.06861 17.69L9.43449 14.8715L14.8004 17.69L13.7744 11.7168L18.1143 7.48897L12.1174 6.61627L9.43449 1.17963Z" fill="#FBB002"/>
</g>
<g clip-path="url(#clip1_1075_44283)">
<path d="M33.2166 1.17932L30.4778 6.61597L24.356 7.48276L28.7863 11.7165L27.7389 17.6897L33.2166 14.8712L38.6943 17.6897L37.6469 11.7165L42.0772 7.48866L35.9554 6.61597L33.2166 1.17932Z" fill="#FBB002"/>
</g>
<path d="M57.0007 1.17932L54.3177 6.61597L48.3209 7.48276L52.6608 11.7165L51.6348 17.6897L57.0007 14.8712L62.3665 17.6897L61.3405 11.7165L65.6804 7.48866L59.6836 6.61597L57.0007 1.17932Z" fill="#FBB002"/>
<g clip-path="url(#clip2_1075_44283)">
<path d="M80.7829 1.1795L78.0441 6.61615L71.9223 7.48295L76.3526 11.7167L75.3052 17.6899L80.7829 14.8714L86.2606 17.6899L85.2132 11.7167L89.6435 7.48884L83.5217 6.61615L80.7829 1.1795Z" fill="#FBB002"/>
</g>
<g clip-path="url(#clip3_1075_44283)">
<path d="M104.565 3.84457L106.193 7.13487L106.464 7.72452L107.054 7.81297L110.686 8.33777L108.103 10.8733L107.661 11.3037L107.767 11.8934L108.386 15.508L105.137 13.8039L104.565 13.5621L104.017 13.8511L100.768 15.5316L101.358 11.917L101.464 11.3273L101.027 10.8733L98.4212 8.30828L102.054 7.78349L102.643 7.69504L102.914 7.10538L104.565 3.84457ZM104.565 1.17932L101.883 6.61597L95.8857 7.48276L100.226 11.7165L99.1996 17.6897L104.565 14.8712L109.931 17.6897L108.905 11.7165L113.245 7.48866L107.248 6.61597L104.565 1.17932Z" fill="#FBB002"/>
</g>
<defs>
<clipPath id="clip0_1075_44283">
<rect width="18.8691" height="18.8691" fill="white" transform="translate(0 0.000305176)"/>
</clipPath>
<clipPath id="clip1_1075_44283">
<rect width="19.2622" height="18.8691" fill="white" transform="translate(23.5855)"/>
</clipPath>
<clipPath id="clip2_1075_44283">
<rect width="19.2622" height="18.8691" fill="white" transform="translate(71.1518 0.000183105)"/>
</clipPath>
<clipPath id="clip3_1075_44283">
<rect width="18.8691" height="18.8691" fill="white" transform="translate(95.131)"/>
</clipPath>
</defs>
</svg>
